# xmcd CD database file
#
# Track frame offsets:
#	150
#	13957
#	29192
#	45114
#	57948
#	73395
#	86875
#	99329
#	114049
#	126985
#	140944
#	153226
#	165912
#	178543
#	194155
#	207947
#	221644
#	235976
#	248885
#	262562
#	275216
#
# Disc length: 3820 seconds
#
# Revision: 0
# Processed by: cddbd v1.4PL0 Copyright (c) Steve Scherf et al.
# Submitted via: CDex 1.40Release
#
DISCID=3a0eea15
DTITLE=Scrapper Blackwell - Bad Liquor Blues
DYEAR=2000
DGENRE=Blues
TTITLE0=Kokomo Blues
TTITLE1=Penal Farm Blues
TTITLE2=Be-Da-Da-Bum
TTITLE3=Back Door Blues
TTITLE4=Morning Mail Blues
TTITLE5=Down South Blues
TTITLE6=D Blues
TTITLE7=Blues That Make Me Cry
TTITLE8=Wayback Blues
TTITLE9=A Blues
TTITLE10=Motherless Boy Blues
TTITLE11=Alley Sally Blues
TTITLE12=Blue Day Blues
TTITLE13=Texas Stomp
TTITLE14=Trouble Blues (Part 1)
TTITLE15=Trouble Blues (Part 2)
TTITLE16=Non Skid Tread
TTITLE17=Hard Time Blues
TTITLE18=My Old Pal Blues
TTITLE19=Bad Liquor Blues
TTITLE20=Rambling Blues
EXTD=YEAR: 2000 ID3G: 0
EXTT0=
EXTT1=
EXTT2=
EXTT3=
EXTT4=
EXTT5=
EXTT6=
EXTT7=
EXTT8=
EXTT9=
EXTT10=
EXTT11=
EXTT12=
EXTT13=
EXTT14=
EXTT15=
EXTT16=
EXTT17=
EXTT18=
EXTT19=
EXTT20=
PLAYORDER=
